<svg width="48" height="48" viewBox="0 0 48 48" fill="none" xmlns="http://www.w3.org/2000/svg">
<mask id="mask0_3006_308" style="mask-type:alpha" maskUnits="userSpaceOnUse" x="0" y="0" width="48" height="48">
<rect width="48" height="48" fill="#D9D9D9"/>
</mask>
<g mask="url(#mask0_3006_308)">
<path d="M16.3169 13.7432C16.3169 13.1808 16.0928 12.6414 15.694 12.2438C15.2952 11.8461 14.7543 11.6227 14.1903 11.6227C13.6263 11.6227 13.0853 11.8461 12.6865 12.2438C12.2877 12.6414 12.0637 13.1808 12.0637 13.7432C12.0639 14.1652 12.1905 14.5775 12.4273 14.9273C12.6641 15.2771 13.0003 15.5484 13.3927 15.7065V22.2259H14.9878V15.7065C15.3803 15.5485 15.7166 15.2773 15.9534 14.9274C16.1902 14.5776 16.3168 14.1652 16.3169 13.7432ZM35.4585 13.7432C35.4488 13.187 35.2205 12.657 34.8227 12.2671C34.4249 11.8772 33.8894 11.6588 33.3316 11.6588C32.7738 11.6588 32.2383 11.8772 31.8405 12.2671C31.4427 12.657 31.2143 13.187 31.2047 13.7432C31.2049 14.1652 31.3316 14.5776 31.5684 14.9274C31.8053 15.2772 32.1415 15.5485 32.534 15.7065V22.2259H34.1291V15.7071C34.5217 15.549 34.858 15.2776 35.0948 14.9277C35.3317 14.5778 35.4583 14.1653 35.4585 13.7432ZM30.1414 23.2862C26.2034 24.647 21.6381 24.7526 17.3805 23.2862C16.3941 24.9142 15.7854 27.1632 15.7854 29.6485C15.7854 30.8197 19.3546 31.769 23.7609 31.769C28.1653 31.769 31.7365 30.8197 31.7365 29.6485C31.7365 27.1632 31.1281 24.9142 30.1414 23.2862ZM19.7731 29.6485C19.5985 29.6486 19.4256 29.6143 19.2643 29.5477C19.103 29.4811 18.9564 29.3835 18.833 29.2603C18.7095 29.1372 18.6116 28.991 18.5449 28.8301C18.4782 28.6692 18.4439 28.4968 18.4441 28.3227C18.4441 27.5907 19.0384 26.9974 19.7731 26.9974C20.5079 26.9974 21.1022 27.5907 21.1022 28.3227C21.1024 28.4968 21.0681 28.6692 21.0014 28.8301C20.9347 28.991 20.8368 29.1372 20.7133 29.2603C20.5899 29.3835 20.4433 29.4811 20.282 29.5477C20.1207 29.6143 19.9478 29.6486 19.7731 29.6485ZM27.7487 29.6485C27.574 29.6487 27.4011 29.6145 27.2397 29.5479C27.0783 29.4813 26.9317 29.3837 26.8082 29.2605C26.6847 29.1374 26.5868 28.9911 26.5201 28.8302C26.4534 28.6693 26.4191 28.4968 26.4193 28.3227C26.4193 27.5907 27.0134 26.9974 27.7487 26.9974C28.484 26.9974 29.0781 27.5907 29.0781 28.3227C29.0783 28.4968 29.044 28.6693 28.9773 28.8302C28.9106 28.9911 28.8127 29.1374 28.6892 29.2605C28.5657 29.3837 28.4191 29.4813 28.2577 29.5479C28.0963 29.6145 27.9233 29.6487 27.7487 29.6485Z" fill="#3769FF"/>
<path d="M23.7609 15.8639C16.7137 15.8639 11.0001 22.0338 11.0001 29.6485C11.0001 33.7491 16.7137 37.0704 23.7609 37.0704C30.8104 37.0704 36.5218 33.7491 36.5218 29.6485C36.5218 22.0338 30.8104 15.8639 23.7609 15.8639ZM23.7609 34.95C17.4941 34.95 13.1267 32.1561 13.1267 29.6485C13.1267 23.2168 17.897 17.9844 23.7609 17.9844C29.6242 17.9844 34.3949 23.2168 34.3949 29.6485C34.3949 32.1561 30.0284 34.95 23.7609 34.95Z" fill="#3769FF"/>
</g>
</svg>
