<svg width="30" height="30" viewBox="0 0 30 30" fill="none" xmlns="http://www.w3.org/2000/svg">
<path d="M15.087 -0.000153266C18.1288 0.0209525 21.0926 0.964971 23.5862 2.70703C26.0798 4.4491 27.9859 6.90712 29.0522 9.75597C30.1161 12.6037 30.2887 15.7076 29.5471 18.6558C28.8055 21.6039 27.1848 24.2567 24.9002 26.2622C22.6137 28.2696 19.7721 29.5364 16.7507 29.8953C13.7293 30.2542 10.67 29.6882 7.97695 28.2722L7.90795 28.2482C7.90409 28.2464 7.90071 28.2436 7.8981 28.2403C7.89549 28.2369 7.89373 28.2329 7.89295 28.2287L6.86994 27.6497C6.68673 27.5725 6.48494 27.5506 6.28943 27.5867C5.22442 27.9692 4.13691 28.2827 3.03289 28.5272L2.83039 28.5512C1.61537 28.5782 1.00037 27.7892 1.00037 26.6417L1.03037 26.3957C1.30637 25.2542 1.65287 24.1306 2.04738 23.0896C2.07766 22.9891 2.08743 22.8835 2.07609 22.7792C2.06475 22.6748 2.03254 22.5738 1.98138 22.4821L1.70688 21.9436C0.508525 19.6532 -0.0767867 17.0918 0.00785076 14.5082C0.0924883 11.9247 0.844194 9.40697 2.18988 7.19994C3.53796 4.99108 5.43349 3.16768 7.69297 1.90628C9.95245 0.644884 12.4993 -0.0117862 15.087 -0.000153266ZM15.072 2.09237L14.652 2.09837C12.498 2.15941 10.3933 2.75766 8.52918 3.83877C6.66507 4.91988 5.10061 6.44959 3.9779 8.28895C2.8196 10.1889 2.17284 12.3564 2.10055 14.5805C2.02826 16.8045 2.53291 19.0094 3.5654 20.9806L3.8354 21.5101C4.19691 22.1851 4.27341 22.9771 4.0259 23.7676C3.6419 24.7877 3.3209 25.8287 3.06589 26.8877L3.20689 26.3357L3.7994 26.1812C4.0019 26.1257 4.20591 26.0657 4.41141 26.0042L5.02942 25.8092L5.65642 25.5932C6.34118 25.4078 7.06848 25.459 7.72045 25.7387C7.86595 25.8092 8.04745 25.9067 8.27546 26.0357L8.90846 26.3987L8.93546 26.4062L8.91746 26.4047L9.34947 26.6207C11.5734 27.6939 14.058 28.1089 16.51 27.8165C18.962 27.5242 21.2793 26.5367 23.1886 24.9707L23.5186 24.6902C25.4845 22.9647 26.879 20.6821 27.5169 18.1455C28.1548 15.6088 28.006 12.9381 27.0902 10.488C26.1721 8.03665 24.5316 5.92166 22.3858 4.4226C20.2399 2.92353 17.6896 2.11099 15.072 2.09237ZM8.42396 13.29C8.64874 13.29 8.87132 13.3342 9.079 13.4202C9.28668 13.5062 9.47539 13.6323 9.63435 13.7912C9.7933 13.9502 9.91939 14.1388 10.0054 14.3465C10.0914 14.5542 10.1357 14.7768 10.1357 15.0015C10.1357 15.2263 10.0914 15.4489 10.0054 15.6566C9.91939 15.8642 9.7933 16.0529 9.63435 16.2118C9.47539 16.3708 9.28668 16.4968 9.079 16.5828C8.87132 16.6688 8.64874 16.7131 8.42396 16.7131C7.97008 16.713 7.53481 16.5326 7.21389 16.2117C6.89297 15.8907 6.71268 15.4554 6.71268 15.0015C6.71268 14.5477 6.89297 14.1124 7.21389 13.7914C7.53481 13.4704 7.97008 13.2901 8.42396 13.29ZM15.0795 13.29C15.3043 13.29 15.5269 13.3342 15.7346 13.4202C15.9423 13.5062 16.131 13.6323 16.2899 13.7912C16.4489 13.9502 16.575 14.1388 16.661 14.3465C16.747 14.5542 16.7913 14.7768 16.7913 15.0015C16.7913 15.2263 16.747 15.4489 16.661 15.6566C16.575 15.8642 16.4489 16.0529 16.2899 16.2118C16.131 16.3708 15.9423 16.4968 15.7346 16.5828C15.5269 16.6688 15.3043 16.7131 15.0795 16.7131C14.6257 16.713 14.1904 16.5326 13.8695 16.2117C13.5486 15.8907 13.3683 15.4554 13.3683 15.0015C13.3683 14.5477 13.5486 14.1124 13.8695 13.7914C14.1904 13.4704 14.6257 13.2901 15.0795 13.29ZM21.7351 13.29C21.9599 13.29 22.1825 13.3342 22.3902 13.4202C22.5978 13.5062 22.7866 13.6323 22.9455 13.7912C23.1045 13.9502 23.2306 14.1388 23.3166 14.3465C23.4026 14.5542 23.4469 14.7768 23.4469 15.0015C23.4469 15.2263 23.4026 15.4489 23.3166 15.6566C23.2306 15.8642 23.1045 16.0529 22.9455 16.2118C22.7866 16.3708 22.5978 16.4968 22.3902 16.5828C22.1825 16.6688 21.9599 16.7131 21.7351 16.7131C21.2812 16.713 20.846 16.5326 20.5251 16.2117C20.2041 15.8907 20.0238 15.4554 20.0238 15.0015C20.0238 14.5477 20.2041 14.1124 20.5251 13.7914C20.846 13.4704 21.2812 13.2901 21.7351 13.29Z" fill="#667085"/>
</svg>
