<svg width="48" height="48" viewBox="0 0 48 48" fill="none" xmlns="http://www.w3.org/2000/svg">
<path d="M24 31.15C23.7333 31.15 23.4833 31.1087 23.25 31.026C23.0167 30.9433 22.8 30.8013 22.6 30.6L15.4 23.4C15 23 14.808 22.5333 14.824 22C14.84 21.4667 15.032 21 15.4 20.6C15.8 20.2 16.2753 19.992 16.826 19.976C17.3767 19.96 17.8513 20.1513 18.25 20.55L22 24.3V10C22 9.43334 22.192 8.95867 22.576 8.57601C22.96 8.19334 23.4347 8.00134 24 8.00001C24.5653 7.99867 25.0407 8.19067 25.426 8.57601C25.8113 8.96134 26.0027 9.43601 26 10V24.3L29.75 20.55C30.15 20.15 30.6253 19.958 31.176 19.974C31.7267 19.99 32.2013 20.1987 32.6 20.6C32.9667 21 33.1587 21.4667 33.176 22C33.1933 22.5333 33.0013 23 32.6 23.4L25.4 30.6C25.2 30.8 24.9833 30.942 24.75 31.026C24.5167 31.11 24.2667 31.1513 24 31.15ZM12 40C10.9 40 9.95867 39.6087 9.176 38.826C8.39333 38.0433 8.00133 37.1013 8 36V32C8 31.4333 8.192 30.9587 8.576 30.576C8.96 30.1933 9.43467 30.0013 10 30C10.5653 29.9987 11.0407 30.1907 11.426 30.576C11.8113 30.9613 12.0027 31.436 12 32V36H36V32C36 31.4333 36.192 30.9587 36.576 30.576C36.96 30.1933 37.4347 30.0013 38 30C38.5653 29.9987 39.0407 30.1907 39.426 30.576C39.8113 30.9613 40.0027 31.436 40 32V36C40 37.1 39.6087 38.042 38.826 38.826C38.0433 39.61 37.1013 40.0013 36 40H12Z" fill="#3769FF"/>
</svg>
